<svg width="47" height="48" viewBox="0 0 47 48" fill="none" xmlns="http://www.w3.org/2000/svg">
<circle cx="23.5" cy="23.5" r="23.5" fill="#F2D0A4"/>
<path d="M20.5943 35.9574C27.3053 30.3241 26.7821 34.0764 25.7664 36.0209L27.9141 34.0692C28.9316 33.8391 30.5348 27.0744 30.7801 30.7424C31.0362 34.5718 41.8562 24.1178 34.4011 12.3261L30.0918 12.9309L30.2505 10.1579L26.391 10.9978L25.7426 8.3744C22.1052 11.0437 17.2615 19.6968 16.6182 22.2166C15.8104 25.3809 19.1426 23.5564 19.5286 22.0445C19.9146 20.5326 18.4639 18.0896 17.9951 18.9871C17.3322 20.2563 14.0175 25.6679 15.1347 27.3938M15.1347 27.3938C16.252 29.1197 21.6238 34.2104 23.15 33.8653C24.6761 33.5201 13.973 39.9239 14.5615 41.3737C15.1501 42.8235 11.6136 28.9816 15.1347 27.3938Z" stroke="#1B1F3B"/>
</svg>
